<svg width="500" height="500" viewBox="0 0 500 500" fill="none" xmlns="http://www.w3.org/2000/svg">
  <rect width="500" height="500" rx="250" fill="#212121"/>
  <rect x="112" y="112" width="275" height="275" fill="url(#paint0_linear)"/>
  <g filter="url(#filter0_d)">
    <path d="M234.675 284.975C236.192 284.975 237.358 285.675 238.175 287.075C239.108 288.475 239.575 290.4 239.575 292.85C239.575 297.4 238.467 301.017 236.25 303.7C230.65 310.467 224.992 315.717 219.275 319.45C213.558 323.067 206.792 324.875 198.975 324.875C191.392 324.875 184.917 322.833 179.55 318.75C174.3 314.667 169.283 307.667 164.5 297.75C160.65 289.817 157.617 283.983 155.4 280.25C153.183 276.4 150.967 273.658 148.75 272.025C146.65 270.392 144.025 269.4 140.875 269.05C140.408 271.5 139.067 279.2 136.85 292.15C135.917 297.983 135.333 301.542 135.1 302.825C133.933 309.942 131.6 315.425 128.1 319.275C124.6 323.008 119.292 324.875 112.175 324.875C104.358 324.875 97.4167 322.6 91.35 318.05C85.4 313.383 80.7917 306.967 77.525 298.8C74.2583 290.517 72.625 281.125 72.625 270.625C72.625 251.025 76.0083 234.108 82.775 219.875C89.6583 205.642 99.225 194.792 111.475 187.325C123.842 179.742 138.075 175.95 154.175 175.95C165.375 175.95 174.767 177.642 182.35 181.025C189.933 184.408 195.533 189.075 199.15 195.025C202.883 200.975 204.75 207.683 204.75 215.15C204.75 221.683 203.175 228.1 200.025 234.4C196.992 240.583 192.383 246.067 186.2 250.85C180.017 255.633 172.492 259.192 163.625 261.525C169.225 263.042 173.542 265.492 176.575 268.875C179.608 272.258 182.642 277.217 185.675 283.75C188.942 290.75 192.15 295.883 195.3 299.15C198.567 302.417 202.3 304.05 206.5 304.05C210.233 304.05 213.792 302.825 217.175 300.375C220.558 297.808 224.817 293.492 229.95 287.425C231.35 285.792 232.925 284.975 234.675 284.975ZM116.725 268.875C112.758 268.875 110.017 267.942 108.5 266.075C107.1 264.208 106.4 262.108 106.4 259.775C106.4 256.975 107.275 254.758 109.025 253.125C110.892 251.492 112.992 250.675 115.325 250.675H119.7C121.567 239.242 123.317 229.383 124.95 221.1C126.467 213.517 131.367 209.725 139.65 209.725C146.3 209.725 149.625 212.7 149.625 218.65C149.625 219.933 149.567 220.925 149.45 221.625L144.2 250.675C150.5 250.325 156.217 248.808 161.35 246.125C166.6 243.442 170.742 239.708 173.775 234.925C176.925 230.142 178.5 224.717 178.5 218.65C178.5 211.3 175.992 205.525 170.975 201.325C165.958 197.125 158.608 195.025 148.925 195.025C137.492 195.025 127.458 197.883 118.825 203.6C110.308 209.2 103.658 217.6 98.875 228.8C94.0917 239.883 91.7 253.417 91.7 269.4C91.7 276.867 92.4583 283.283 93.975 288.65C95.4917 294.017 97.3583 298.042 99.575 300.725C101.792 303.408 103.892 304.75 105.875 304.75C107.392 304.75 108.617 303.992 109.55 302.475C110.6 300.958 111.417 298.508 112 295.125L116.725 268.875ZM300.012 284.975C301.528 284.975 302.695 285.675 303.512 287.075C304.445 288.475 304.912 290.4 304.912 292.85C304.912 297.517 303.803 301.133 301.587 303.7C297.27 308.95 291.145 313.792 283.212 318.225C275.395 322.658 266.995 324.875 258.012 324.875C245.762 324.875 236.253 321.55 229.487 314.9C222.72 308.25 219.337 299.15 219.337 287.6C219.337 279.55 221.028 272.083 224.412 265.2C227.795 258.2 232.462 252.658 238.412 248.575C244.478 244.492 251.303 242.45 258.887 242.45C265.653 242.45 271.078 244.492 275.162 248.575C279.245 252.542 281.287 257.967 281.287 264.85C281.287 272.9 278.37 279.842 272.537 285.675C266.82 291.392 257.078 295.942 243.312 299.325C246.228 304.692 251.77 307.375 259.937 307.375C265.187 307.375 271.137 305.567 277.787 301.95C284.553 298.217 290.387 293.375 295.287 287.425C296.687 285.792 298.262 284.975 300.012 284.975ZM255.912 259.6C251.595 259.6 247.92 262.108 244.887 267.125C241.97 272.142 240.512 278.208 240.512 285.325V285.675C247.395 284.042 252.82 281.592 256.787 278.325C260.753 275.058 262.737 271.267 262.737 266.95C262.737 264.733 262.095 262.983 260.812 261.7C259.645 260.3 258.012 259.6 255.912 259.6ZM323.213 328.725C317.146 328.725 312.479 327.325 309.213 324.525C306.063 321.725 304.488 318.575 304.488 315.075C304.488 312.042 305.596 309.417 307.813 307.2C310.029 304.983 313.296 303.875 317.613 303.875C319.129 303.875 320.879 304.05 322.863 304.4C324.963 304.633 326.538 304.808 327.588 304.925C327.471 301.892 326.771 299.033 325.488 296.35C324.321 293.667 322.804 291.1 320.938 288.65C319.071 286.083 317.321 283.867 315.688 282C312.071 288.883 308.454 294.6 304.838 299.15C301.338 303.7 297.488 308.017 293.288 312.1C291.188 314.2 288.971 315.25 286.638 315.25C284.771 315.25 283.254 314.608 282.088 313.325C280.921 311.925 280.338 310.233 280.338 308.25C280.338 305.917 281.154 303.758 282.788 301.775L285.063 298.975C291.479 291.042 296.321 284.508 299.588 279.375C301.571 275.992 303.904 271.5 306.588 265.9C309.271 260.183 311.896 254.292 314.463 248.225C316.679 243.092 321.288 240.525 328.288 240.525C331.554 240.525 333.829 240.817 335.113 241.4C336.396 241.983 337.038 242.917 337.038 244.2C337.038 244.9 336.804 246.008 336.338 247.525C335.871 249.042 335.229 250.558 334.413 252.075C332.313 256.275 331.263 259.833 331.263 262.75C331.263 264.5 331.846 266.425 333.013 268.525C334.296 270.625 336.221 273.25 338.788 276.4C342.521 281.3 345.321 285.5 347.188 289C349.171 292.383 350.163 296.117 350.163 300.2C350.163 301.367 350.046 303 349.813 305.1C355.529 302.883 362.238 296.992 369.938 287.425C371.338 285.792 372.913 284.975 374.663 284.975C376.179 284.975 377.346 285.675 378.163 287.075C379.096 288.475 379.563 290.4 379.563 292.85C379.563 297.283 378.454 300.9 376.238 303.7C370.404 310.933 364.804 315.892 359.438 318.575C354.188 321.142 347.654 322.542 339.838 322.775C335.171 326.742 329.629 328.725 323.213 328.725ZM434.645 270.625C434.645 279.842 432.487 288.592 428.17 296.875C423.97 305.042 418.312 311.692 411.195 316.825C404.195 321.958 396.67 324.642 388.62 324.875C387.104 347.392 383.662 366.175 378.295 381.225C372.929 396.392 365.054 403.975 354.67 403.975C348.37 403.975 343.704 401.7 340.67 397.15C337.637 392.6 336.12 386.3 336.12 378.25C336.12 366.817 338.745 353.458 343.995 338.175C349.245 323.008 357.354 306.267 368.32 287.95C368.32 270.917 368.204 259.075 367.97 252.425C367.854 249.042 369.195 246.358 371.995 244.375C374.795 242.392 378.295 241.4 382.495 241.4C384.945 241.4 386.695 241.925 387.745 242.975C388.912 243.908 389.554 245.833 389.67 248.75C389.67 251.667 389.729 253.825 389.845 255.225C393.579 250.558 397.254 247.233 400.87 245.25C404.487 243.15 408.337 242.1 412.42 242.1C418.954 242.1 424.262 244.725 428.345 249.975C432.545 255.225 434.645 262.108 434.645 270.625ZM389.495 308.075C393.695 307.142 397.545 304.867 401.045 301.25C404.662 297.517 407.52 292.967 409.62 287.6C411.72 282.117 412.77 276.4 412.77 270.45C412.77 266.95 412.07 264.325 410.67 262.575C409.27 260.708 407.404 259.775 405.07 259.775C400.87 259.775 395.795 264.208 389.845 273.075C389.729 278.208 389.67 285.733 389.67 295.65C389.67 301.017 389.612 305.158 389.495 308.075ZM356.07 386.825C359.22 386.825 361.845 379.942 363.945 366.175C366.045 352.525 367.387 335.492 367.97 315.075C362.954 326.742 358.987 337.883 356.07 348.5C353.154 359.117 351.695 368.042 351.695 375.275C351.695 379.008 352.162 381.867 353.095 383.85C353.912 385.833 354.904 386.825 356.07 386.825Z" fill="url(#paint1_linear)"/>
  </g>
  <defs>
    <filter id="filter0_d" x="72.625" y="175.95" width="366.02" height="233.025" filterUnits="userSpaceOnUse" color-interpolation-filters="sRGB">
      <feFlood flood-opacity="0" result="BackgroundImageFix"/>
      <feColorMatrix in="SourceAlpha" type="matrix" values="0 0 0 0 0 0 0 0 0 0 0 0 0 0 0 0 0 0 127 0" result="hardAlpha"/>
      <feOffset dx="4" dy="5"/>
      <feColorMatrix type="matrix" values="0 0 0 0 0.764706 0 0 0 0 0.0784314 0 0 0 0 0.196078 0 0 0 1 0"/>
      <feBlend mode="normal" in2="BackgroundImageFix" result="effect1_dropShadow"/>
      <feBlend mode="normal" in="SourceGraphic" in2="effect1_dropShadow" result="shape"/>
    </filter>
    <linearGradient id="paint0_linear" x1="478.667" y1="20.3333" x2="20.3333" y2="478.667" gradientUnits="userSpaceOnUse">
      <stop stop-color="#C31432"/>
      <stop offset="1" stop-color="#240B36"/>
    </linearGradient>
    <linearGradient id="paint1_linear" x1="437" y1="96" x2="63" y2="403" gradientUnits="userSpaceOnUse">
      <stop stop-color="#EAEAEA"/>
      <stop offset="1" stop-color="#FAFAFA"/>
    </linearGradient>
  </defs>
</svg>