<svg width="16" height="16" viewBox="0 0 16 16" fill="none" xmlns="http://www.w3.org/2000/svg">
<path fill-rule="evenodd" clip-rule="evenodd" d="M8.3 8L11.3 5L14.3 8L11.3 11L8.3 8ZM10.4213 8L11.3 8.87868L12.1787 8L11.3 7.12132L10.4213 8Z" fill="#FFB347"/>
<path d="M3.5 6.5C3.5 6.99706 3.09706 7.4 2.6 7.4C2.10294 7.4 1.7 6.99706 1.7 6.5C1.7 6.00294 2.10294 5.6 2.6 5.6C3.09706 5.6 3.5 6.00294 3.5 6.5Z" fill="#FFB347"/>
<path d="M3.5 9.5C3.5 9.99706 3.09706 10.4 2.6 10.4C2.10294 10.4 1.7 9.99706 1.7 9.5C1.7 9.00294 2.10294 8.6 2.6 8.6C3.09706 8.6 3.5 9.00294 3.5 9.5Z" fill="#FFB347"/>
<path d="M7.1 6.5C7.1 6.99706 6.69706 7.4 6.2 7.4C5.70294 7.4 5.3 6.99706 5.3 6.5C5.3 6.00294 5.70294 5.6 6.2 5.6C6.69706 5.6 7.1 6.00294 7.1 6.5Z" fill="#FFB347"/>
<path d="M7.1 9.5C7.1 9.99706 6.69706 10.4 6.2 10.4C5.70294 10.4 5.3 9.99706 5.3 9.5C5.3 9.00294 5.70294 8.6 6.2 8.6C6.69706 8.6 7.1 9.00294 7.1 9.5Z" fill="#FFB347"/>
</svg>
