<svg width="192" height="192" viewBox="0 0 192 192" fill="none" xmlns="http://www.w3.org/2000/svg">
<rect width="192" height="192" rx="96" fill="#212121"/>
<rect x="43" y="43" width="105.6" height="105.6" fill="url(#paint0_linear)"/>
<g filter="url(#filter0_d)">
<path d="M89.9232 104.014C90.5056 104.014 90.9536 104.283 91.2672 104.821C91.6256 105.358 91.8048 106.098 91.8048 107.038C91.8048 108.786 91.3792 110.174 90.528 111.205C88.3776 113.803 86.2048 115.819 84.0096 117.253C81.8144 118.642 79.216 119.336 76.2144 119.336C73.3024 119.336 70.816 118.552 68.7552 116.984C66.7392 115.416 64.8128 112.728 62.976 108.92C61.4976 105.874 60.3328 103.634 59.4816 102.2C58.6304 100.722 57.7792 99.6688 56.928 99.0416C56.1216 98.4144 55.1136 98.0336 53.904 97.8992C53.7248 98.84 53.2096 101.797 52.3584 106.77C52 109.01 51.776 110.376 51.6864 110.869C51.2384 113.602 50.3424 115.707 48.9984 117.186C47.6544 118.619 45.616 119.336 42.8832 119.336C39.8816 119.336 37.216 118.462 34.8864 116.715C32.6016 114.923 30.832 112.459 29.5776 109.323C28.3232 106.142 27.696 102.536 27.696 98.504C27.696 90.9776 28.9952 84.4816 31.5936 79.016C34.2368 73.5504 37.9104 69.384 42.6144 66.5168C47.3632 63.6048 52.8288 62.1488 59.0112 62.1488C63.312 62.1488 66.9184 62.7984 69.8304 64.0976C72.7424 65.3968 74.8928 67.1888 76.2816 69.4736C77.7152 71.7584 78.432 74.3344 78.432 77.2016C78.432 79.7104 77.8272 82.1744 76.6176 84.5936C75.4528 86.968 73.6832 89.0736 71.3088 90.9104C68.9344 92.7472 66.0448 94.1136 62.64 95.0096C64.7904 95.592 66.448 96.5328 67.6128 97.832C68.7776 99.1312 69.9424 101.035 71.1072 103.544C72.3616 106.232 73.5936 108.203 74.8032 109.458C76.0576 110.712 77.4912 111.339 79.104 111.339C80.5376 111.339 81.904 110.869 83.2032 109.928C84.5024 108.942 86.1376 107.285 88.1088 104.955C88.6464 104.328 89.2512 104.014 89.9232 104.014ZM44.6304 97.832C43.1072 97.832 42.0544 97.4736 41.472 96.7568C40.9344 96.04 40.6656 95.2336 40.6656 94.3376C40.6656 93.2624 41.0016 92.4112 41.6736 91.784C42.3904 91.1568 43.1968 90.8432 44.0928 90.8432H45.7728C46.4896 86.4528 47.1616 82.6672 47.7888 79.4864C48.3712 76.5744 50.2528 75.1184 53.4336 75.1184C55.9872 75.1184 57.264 76.2608 57.264 78.5456C57.264 79.0384 57.2416 79.4192 57.1968 79.688L55.1808 90.8432C57.6 90.7088 59.7952 90.1264 61.7664 89.096C63.7824 88.0656 65.3728 86.632 66.5376 84.7952C67.7472 82.9584 68.352 80.8752 68.352 78.5456C68.352 75.7232 67.3888 73.5056 65.4624 71.8928C63.536 70.28 60.7136 69.4736 56.9952 69.4736C52.6048 69.4736 48.752 70.5712 45.4368 72.7664C42.1664 74.9168 39.6128 78.1424 37.776 82.4432C35.9392 86.6992 35.0208 91.896 35.0208 98.0336C35.0208 100.901 35.312 103.365 35.8944 105.426C36.4768 107.486 37.1936 109.032 38.0448 110.062C38.896 111.093 39.7024 111.608 40.464 111.608C41.0464 111.608 41.5168 111.317 41.8752 110.734C42.2784 110.152 42.592 109.211 42.816 107.912L44.6304 97.832ZM115.012 104.014C115.595 104.014 116.043 104.283 116.356 104.821C116.715 105.358 116.894 106.098 116.894 107.038C116.894 108.83 116.468 110.219 115.617 111.205C113.96 113.221 111.608 115.08 108.561 116.782C105.56 118.485 102.334 119.336 98.8844 119.336C94.1804 119.336 90.5292 118.059 87.9308 115.506C85.3324 112.952 84.0332 109.458 84.0332 105.022C84.0332 101.931 84.6828 99.064 85.982 96.4208C87.2812 93.7328 89.0732 91.6048 91.358 90.0368C93.6876 88.4688 96.3084 87.6848 99.2204 87.6848C101.819 87.6848 103.902 88.4688 105.47 90.0368C107.038 91.56 107.822 93.6432 107.822 96.2864C107.822 99.3776 106.702 102.043 104.462 104.283C102.267 106.478 98.526 108.226 93.2396 109.525C94.3596 111.586 96.4876 112.616 99.6236 112.616C101.64 112.616 103.924 111.922 106.478 110.533C109.076 109.099 111.316 107.24 113.198 104.955C113.736 104.328 114.34 104.014 115.012 104.014ZM98.078 94.2704C96.4204 94.2704 95.0092 95.2336 93.8444 97.16C92.7244 99.0864 92.1644 101.416 92.1644 104.149V104.283C94.8076 103.656 96.8908 102.715 98.414 101.461C99.9372 100.206 100.699 98.7504 100.699 97.0928C100.699 96.2416 100.452 95.5696 99.9596 95.0768C99.5116 94.5392 98.8844 94.2704 98.078 94.2704ZM123.922 120.814C121.592 120.814 119.8 120.277 118.546 119.202C117.336 118.126 116.731 116.917 116.731 115.573C116.731 114.408 117.157 113.4 118.008 112.549C118.859 111.698 120.114 111.272 121.771 111.272C122.354 111.272 123.026 111.339 123.787 111.474C124.594 111.563 125.198 111.63 125.602 111.675C125.557 110.51 125.288 109.413 124.795 108.382C124.347 107.352 123.765 106.366 123.048 105.426C122.331 104.44 121.659 103.589 121.032 102.872C119.643 105.515 118.254 107.71 116.866 109.458C115.522 111.205 114.043 112.862 112.43 114.43C111.624 115.237 110.773 115.64 109.877 115.64C109.16 115.64 108.578 115.394 108.13 114.901C107.682 114.363 107.458 113.714 107.458 112.952C107.458 112.056 107.771 111.227 108.398 110.466L109.272 109.39C111.736 106.344 113.595 103.835 114.85 101.864C115.611 100.565 116.507 98.84 117.538 96.6896C118.568 94.4944 119.576 92.232 120.562 89.9024C121.413 87.9312 123.182 86.9456 125.87 86.9456C127.125 86.9456 127.998 87.0576 128.491 87.2816C128.984 87.5056 129.23 87.864 129.23 88.3568C129.23 88.6256 129.141 89.0512 128.962 89.6336C128.782 90.216 128.536 90.7984 128.222 91.3808C127.416 92.9936 127.013 94.36 127.013 95.48C127.013 96.152 127.237 96.8912 127.685 97.6976C128.178 98.504 128.917 99.512 129.902 100.722C131.336 102.603 132.411 104.216 133.128 105.56C133.89 106.859 134.27 108.293 134.27 109.861C134.27 110.309 134.226 110.936 134.136 111.742C136.331 110.891 138.907 108.629 141.864 104.955C142.402 104.328 143.006 104.014 143.678 104.014C144.261 104.014 144.709 104.283 145.022 104.821C145.381 105.358 145.56 106.098 145.56 107.038C145.56 108.741 145.134 110.13 144.283 111.205C142.043 113.982 139.893 115.886 137.832 116.917C135.816 117.902 133.307 118.44 130.306 118.53C128.514 120.053 126.386 120.814 123.922 120.814ZM166.712 98.504C166.712 102.043 165.883 105.403 164.225 108.584C162.613 111.72 160.44 114.274 157.707 116.245C155.019 118.216 152.129 119.246 149.038 119.336C148.456 127.982 147.134 135.195 145.073 140.974C143.013 146.798 139.989 149.71 136.001 149.71C133.582 149.71 131.79 148.837 130.625 147.09C129.461 145.342 128.878 142.923 128.878 139.832C128.878 135.442 129.886 130.312 131.902 124.443C133.918 118.619 137.032 112.19 141.243 105.157C141.243 98.616 141.198 94.0688 141.109 91.5152C141.064 90.216 141.579 89.1856 142.654 88.424C143.729 87.6624 145.073 87.2816 146.686 87.2816C147.627 87.2816 148.299 87.4832 148.702 87.8864C149.15 88.2448 149.397 88.984 149.441 90.104C149.441 91.224 149.464 92.0528 149.509 92.5904C150.942 90.7984 152.353 89.5216 153.742 88.76C155.131 87.9536 156.609 87.5504 158.177 87.5504C160.686 87.5504 162.725 88.5584 164.293 90.5744C165.905 92.5904 166.712 95.2336 166.712 98.504ZM149.374 112.885C150.987 112.526 152.465 111.653 153.809 110.264C155.198 108.83 156.296 107.083 157.102 105.022C157.909 102.917 158.312 100.722 158.312 98.4368C158.312 97.0928 158.043 96.0848 157.505 95.4128C156.968 94.696 156.251 94.3376 155.355 94.3376C153.742 94.3376 151.793 96.04 149.509 99.4448C149.464 101.416 149.441 104.306 149.441 108.114C149.441 110.174 149.419 111.765 149.374 112.885ZM136.539 143.125C137.749 143.125 138.757 140.482 139.563 135.195C140.369 129.954 140.885 123.413 141.109 115.573C139.182 120.053 137.659 124.331 136.539 128.408C135.419 132.485 134.859 135.912 134.859 138.69C134.859 140.123 135.038 141.221 135.397 141.982C135.71 142.744 136.091 143.125 136.539 143.125Z" fill="url(#paint1_linear)"/>
</g>
<defs>
<filter id="filter0_d" x="27.696" y="62.1488" width="143.016" height="92.5616" filterUnits="userSpaceOnUse" color-interpolation-filters="sRGB">
<feFlood flood-opacity="0" result="BackgroundImageFix"/>
<feColorMatrix in="SourceAlpha" type="matrix" values="0 0 0 0 0 0 0 0 0 0 0 0 0 0 0 0 0 0 127 0"/>
<feOffset dx="4" dy="5"/>
<feColorMatrix type="matrix" values="0 0 0 0 0.764706 0 0 0 0 0.0784314 0 0 0 0 0.196078 0 0 0 1 0"/>
<feBlend mode="normal" in2="BackgroundImageFix" result="effect1_dropShadow"/>
<feBlend mode="normal" in="SourceGraphic" in2="effect1_dropShadow" result="shape"/>
</filter>
<linearGradient id="paint0_linear" x1="183.8" y1="7.8" x2="7.8" y2="183.8" gradientUnits="userSpaceOnUse">
<stop stop-color="#C31432"/>
<stop offset="1" stop-color="#240B36"/>
</linearGradient>
<linearGradient id="paint1_linear" x1="168" y1="31" x2="24.1995" y2="149.243" gradientUnits="userSpaceOnUse">
<stop stop-color="#EAEAEA"/>
<stop offset="1" stop-color="#FAFAFA"/>
</linearGradient>
</defs>
</svg>
